<svg id="visual" viewBox="0 0 1920 1080" width="1920" height="1080" xmlns="http://www.w3.org/2000/svg" xmlns:xlink="http://www.w3.org/1999/xlink" version="1.1"><path d="M0 206L83 206L83 152L167 152L167 152L250 152L250 206L334 206L334 131L417 131L417 152L501 152L501 174L584 174L584 206L668 206L668 120L751 120L751 152L835 152L835 152L918 152L918 185L1002 185L1002 141L1085 141L1085 109L1169 109L1169 228L1252 228L1252 152L1336 152L1336 228L1419 228L1419 195L1503 195L1503 98L1586 98L1586 109L1670 109L1670 141L1753 141L1753 152L1837 152L1837 152L1920 152L1920 120L1920 0L1920 0L1837 0L1837 0L1753 0L1753 0L1670 0L1670 0L1586 0L1586 0L1503 0L1503 0L1419 0L1419 0L1336 0L1336 0L1252 0L1252 0L1169 0L1169 0L1085 0L1085 0L1002 0L1002 0L918 0L918 0L835 0L835 0L751 0L751 0L668 0L668 0L584 0L584 0L501 0L501 0L417 0L417 0L334 0L334 0L250 0L250 0L167 0L167 0L83 0L83 0L0 0Z" fill="#f0db4f"></path><path d="M0 282L83 282L83 293L167 293L167 271L250 271L250 303L334 303L334 206L417 206L417 249L501 249L501 249L584 249L584 314L668 314L668 249L751 249L751 293L835 293L835 282L918 282L918 282L1002 282L1002 239L1085 239L1085 206L1169 206L1169 368L1252 368L1252 282L1336 282L1336 314L1419 314L1419 325L1503 325L1503 185L1586 185L1586 174L1670 174L1670 228L1753 228L1753 282L1837 282L1837 249L1920 249L1920 239L1920 118L1920 150L1837 150L1837 150L1753 150L1753 139L1670 139L1670 107L1586 107L1586 96L1503 96L1503 193L1419 193L1419 226L1336 226L1336 150L1252 150L1252 226L1169 226L1169 107L1085 107L1085 139L1002 139L1002 183L918 183L918 150L835 150L835 150L751 150L751 118L668 118L668 204L584 204L584 172L501 172L501 150L417 150L417 129L334 129L334 204L250 204L250 150L167 150L167 150L83 150L83 204L0 204Z" fill="#dac741"></path><path d="M0 347L83 347L83 433L167 433L167 357L250 357L250 390L334 390L334 293L417 293L417 379L501 379L501 390L584 390L584 444L668 444L668 390L751 390L751 433L835 433L835 411L918 411L918 422L1002 422L1002 347L1085 347L1085 293L1169 293L1169 476L1252 476L1252 411L1336 411L1336 422L1419 422L1419 455L1503 455L1503 347L1586 347L1586 282L1670 282L1670 325L1753 325L1753 357L1837 357L1837 357L1920 357L1920 325L1920 237L1920 247L1837 247L1837 280L1753 280L1753 226L1670 226L1670 172L1586 172L1586 183L1503 183L1503 323L1419 323L1419 312L1336 312L1336 280L1252 280L1252 366L1169 366L1169 204L1085 204L1085 237L1002 237L1002 280L918 280L918 280L835 280L835 291L751 291L751 247L668 247L668 312L584 312L584 247L501 247L501 247L417 247L417 204L334 204L334 301L250 301L250 269L167 269L167 291L83 291L83 280L0 280Z" fill="#c5b433"></path><path d="M0 681L83 681L83 595L167 595L167 627L250 627L250 681L334 681L334 617L417 617L417 768L501 768L501 627L584 627L584 735L668 735L668 735L751 735L751 746L835 746L835 606L918 606L918 638L1002 638L1002 735L1085 735L1085 487L1169 487L1169 735L1252 735L1252 649L1336 649L1336 660L1419 660L1419 725L1503 725L1503 563L1586 563L1586 725L1670 725L1670 692L1753 692L1753 617L1837 617L1837 595L1920 595L1920 714L1920 323L1920 355L1837 355L1837 355L1753 355L1753 323L1670 323L1670 280L1586 280L1586 345L1503 345L1503 453L1419 453L1419 420L1336 420L1336 409L1252 409L1252 474L1169 474L1169 291L1085 291L1085 345L1002 345L1002 420L918 420L918 409L835 409L835 431L751 431L751 388L668 388L668 442L584 442L584 388L501 388L501 377L417 377L417 291L334 291L334 388L250 388L250 355L167 355L167 431L83 431L83 345L0 345Z" fill="#afa025"></path><path d="M0 930L83 930L83 908L167 908L167 941L250 941L250 897L334 897L334 973L417 973L417 962L501 962L501 984L584 984L584 941L668 941L668 973L751 973L751 962L835 962L835 951L918 951L918 984L1002 984L1002 930L1085 930L1085 962L1169 962L1169 941L1252 941L1252 1005L1336 1005L1336 941L1419 941L1419 995L1503 995L1503 951L1586 951L1586 941L1670 941L1670 941L1753 941L1753 919L1837 919L1837 973L1920 973L1920 973L1920 712L1920 593L1837 593L1837 615L1753 615L1753 690L1670 690L1670 723L1586 723L1586 561L1503 561L1503 723L1419 723L1419 658L1336 658L1336 647L1252 647L1252 733L1169 733L1169 485L1085 485L1085 733L1002 733L1002 636L918 636L918 604L835 604L835 744L751 744L751 733L668 733L668 733L584 733L584 625L501 625L501 766L417 766L417 615L334 615L334 679L250 679L250 625L167 625L167 593L83 593L83 679L0 679Z" fill="#9a8d14"></path><path d="M0 1081L83 1081L83 1081L167 1081L167 1081L250 1081L250 1081L334 1081L334 1081L417 1081L417 1081L501 1081L501 1081L584 1081L584 1081L668 1081L668 1081L751 1081L751 1081L835 1081L835 1081L918 1081L918 1081L1002 1081L1002 1081L1085 1081L1085 1081L1169 1081L1169 1081L1252 1081L1252 1081L1336 1081L1336 1081L1419 1081L1419 1081L1503 1081L1503 1081L1586 1081L1586 1081L1670 1081L1670 1081L1753 1081L1753 1081L1837 1081L1837 1081L1920 1081L1920 1081L1920 971L1920 971L1837 971L1837 917L1753 917L1753 939L1670 939L1670 939L1586 939L1586 949L1503 949L1503 993L1419 993L1419 939L1336 939L1336 1003L1252 1003L1252 939L1169 939L1169 960L1085 960L1085 928L1002 928L1002 982L918 982L918 949L835 949L835 960L751 960L751 971L668 971L668 939L584 939L584 982L501 982L501 960L417 960L417 971L334 971L334 895L250 895L250 939L167 939L167 906L83 906L83 928L0 928Z" fill="#867b00"></path></svg>