<svg id="visual" viewBox="0 0 1920 1080" width="1920" height="1080" xmlns="http://www.w3.org/2000/svg" xmlns:xlink="http://www.w3.org/1999/xlink" version="1.1"><path d="M0 152L83 152L83 12L167 12L167 0L250 0L250 120L334 120L334 12L417 12L417 0L501 0L501 0L584 0L584 66L668 66L668 23L751 23L751 131L835 131L835 66L918 66L918 174L1002 174L1002 87L1085 87L1085 131L1169 131L1169 141L1252 141L1252 87L1336 87L1336 33L1419 33L1419 109L1503 109L1503 98L1586 98L1586 44L1670 44L1670 109L1753 109L1753 66L1837 66L1837 109L1920 109L1920 33L1920 0L1920 0L1837 0L1837 0L1753 0L1753 0L1670 0L1670 0L1586 0L1586 0L1503 0L1503 0L1419 0L1419 0L1336 0L1336 0L1252 0L1252 0L1169 0L1169 0L1085 0L1085 0L1002 0L1002 0L918 0L918 0L835 0L835 0L751 0L751 0L668 0L668 0L584 0L584 0L501 0L501 0L417 0L417 0L334 0L334 0L250 0L250 0L167 0L167 0L83 0L83 0L0 0Z" fill="#fa7268"></path><path d="M0 152L83 152L83 77L167 77L167 77L250 77L250 174L334 174L334 55L417 55L417 12L501 12L501 66L584 66L584 98L668 98L668 120L751 120L751 174L835 174L835 66L918 66L918 217L1002 217L1002 109L1085 109L1085 131L1169 131L1169 249L1252 249L1252 152L1336 152L1336 141L1419 141L1419 206L1503 206L1503 185L1586 185L1586 109L1670 109L1670 206L1753 206L1753 152L1837 152L1837 141L1920 141L1920 77L1920 31L1920 107L1837 107L1837 64L1753 64L1753 107L1670 107L1670 42L1586 42L1586 96L1503 96L1503 107L1419 107L1419 31L1336 31L1336 85L1252 85L1252 139L1169 139L1169 129L1085 129L1085 85L1002 85L1002 172L918 172L918 64L835 64L835 129L751 129L751 21L668 21L668 64L584 64L584 0L501 0L501 0L417 0L417 10L334 10L334 118L250 118L250 0L167 0L167 10L83 10L83 150L0 150Z" fill="#eb6066"></path><path d="M0 271L83 271L83 174L167 174L167 109L250 109L250 282L334 282L334 77L417 77L417 23L501 23L501 98L584 98L584 141L668 141L668 185L751 185L751 293L835 293L835 120L918 120L918 228L1002 228L1002 109L1085 109L1085 195L1169 195L1169 249L1252 249L1252 228L1336 228L1336 239L1419 239L1419 260L1503 260L1503 260L1586 260L1586 206L1670 206L1670 314L1753 314L1753 228L1837 228L1837 163L1920 163L1920 120L1920 75L1920 139L1837 139L1837 150L1753 150L1753 204L1670 204L1670 107L1586 107L1586 183L1503 183L1503 204L1419 204L1419 139L1336 139L1336 150L1252 150L1252 247L1169 247L1169 129L1085 129L1085 107L1002 107L1002 215L918 215L918 64L835 64L835 172L751 172L751 118L668 118L668 96L584 96L584 64L501 64L501 10L417 10L417 53L334 53L334 172L250 172L250 75L167 75L167 75L83 75L83 150L0 150Z" fill="#db4e64"></path><path d="M0 368L83 368L83 239L167 239L167 282L250 282L250 357L334 357L334 87L417 87L417 217L501 217L501 228L584 228L584 163L668 163L668 336L751 336L751 401L835 401L835 260L918 260L918 282L1002 282L1002 109L1085 109L1085 282L1169 282L1169 293L1252 293L1252 303L1336 303L1336 336L1419 336L1419 336L1503 336L1503 303L1586 303L1586 282L1670 282L1670 433L1753 433L1753 325L1837 325L1837 195L1920 195L1920 293L1920 118L1920 161L1837 161L1837 226L1753 226L1753 312L1670 312L1670 204L1586 204L1586 258L1503 258L1503 258L1419 258L1419 237L1336 237L1336 226L1252 226L1252 247L1169 247L1169 193L1085 193L1085 107L1002 107L1002 226L918 226L918 118L835 118L835 291L751 291L751 183L668 183L668 139L584 139L584 96L501 96L501 21L417 21L417 75L334 75L334 280L250 280L250 107L167 107L167 172L83 172L83 269L0 269Z" fill="#ca3c62"></path><path d="M0 368L83 368L83 293L167 293L167 282L250 282L250 379L334 379L334 87L417 87L417 249L501 249L501 282L584 282L584 206L668 206L668 401L751 401L751 433L835 433L835 325L918 325L918 303L1002 303L1002 141L1085 141L1085 347L1169 347L1169 293L1252 293L1252 379L1336 379L1336 401L1419 401L1419 411L1503 411L1503 390L1586 390L1586 282L1670 282L1670 444L1753 444L1753 390L1837 390L1837 282L1920 282L1920 325L1920 291L1920 193L1837 193L1837 323L1753 323L1753 431L1670 431L1670 280L1586 280L1586 301L1503 301L1503 334L1419 334L1419 334L1336 334L1336 301L1252 301L1252 291L1169 291L1169 280L1085 280L1085 107L1002 107L1002 280L918 280L918 258L835 258L835 399L751 399L751 334L668 334L668 161L584 161L584 226L501 226L501 215L417 215L417 85L334 85L334 355L250 355L250 280L167 280L167 237L83 237L83 366L0 366Z" fill="#b82a60"></path><path d="M0 563L83 563L83 433L167 433L167 444L250 444L250 563L334 563L334 357L417 357L417 595L501 595L501 314L584 314L584 476L668 476L668 411L751 411L751 617L835 617L835 541L918 541L918 757L1002 757L1002 357L1085 357L1085 541L1169 541L1169 519L1252 519L1252 433L1336 433L1336 584L1419 584L1419 595L1503 595L1503 584L1586 584L1586 401L1670 401L1670 865L1753 865L1753 606L1837 606L1837 789L1920 789L1920 476L1920 323L1920 280L1837 280L1837 388L1753 388L1753 442L1670 442L1670 280L1586 280L1586 388L1503 388L1503 409L1419 409L1419 399L1336 399L1336 377L1252 377L1252 291L1169 291L1169 345L1085 345L1085 139L1002 139L1002 301L918 301L918 323L835 323L835 431L751 431L751 399L668 399L668 204L584 204L584 280L501 280L501 247L417 247L417 85L334 85L334 377L250 377L250 280L167 280L167 291L83 291L83 366L0 366Z" fill="#b0235f"></path><path d="M0 714L83 714L83 455L167 455L167 606L250 606L250 703L334 703L334 390L417 390L417 660L501 660L501 509L584 509L584 757L668 757L668 606L751 606L751 671L835 671L835 563L918 563L918 908L1002 908L1002 519L1085 519L1085 768L1169 768L1169 552L1252 552L1252 649L1336 649L1336 746L1419 746L1419 606L1503 606L1503 725L1586 725L1586 563L1670 563L1670 876L1753 876L1753 725L1837 725L1837 930L1920 930L1920 692L1920 474L1920 787L1837 787L1837 604L1753 604L1753 863L1670 863L1670 399L1586 399L1586 582L1503 582L1503 593L1419 593L1419 582L1336 582L1336 431L1252 431L1252 517L1169 517L1169 539L1085 539L1085 355L1002 355L1002 755L918 755L918 539L835 539L835 615L751 615L751 409L668 409L668 474L584 474L584 312L501 312L501 593L417 593L417 355L334 355L334 561L250 561L250 442L167 442L167 431L83 431L83 561L0 561Z" fill="#b0235f"></path><path d="M0 789L83 789L83 789L167 789L167 735L250 735L250 811L334 811L334 735L417 735L417 757L501 757L501 843L584 843L584 887L668 887L668 833L751 833L751 962L835 962L835 865L918 865L918 919L1002 919L1002 843L1085 843L1085 843L1169 843L1169 768L1252 768L1252 919L1336 919L1336 833L1419 833L1419 951L1503 951L1503 897L1586 897L1586 768L1670 768L1670 887L1753 887L1753 800L1837 800L1837 930L1920 930L1920 843L1920 690L1920 928L1837 928L1837 723L1753 723L1753 874L1670 874L1670 561L1586 561L1586 723L1503 723L1503 604L1419 604L1419 744L1336 744L1336 647L1252 647L1252 550L1169 550L1169 766L1085 766L1085 517L1002 517L1002 906L918 906L918 561L835 561L835 669L751 669L751 604L668 604L668 755L584 755L584 507L501 507L501 658L417 658L417 388L334 388L334 701L250 701L250 604L167 604L167 453L83 453L83 712L0 712Z" fill="#b82a60"></path><path d="M0 800L83 800L83 854L167 854L167 789L250 789L250 833L334 833L334 779L417 779L417 843L501 843L501 854L584 854L584 962L668 962L668 865L751 865L751 1016L835 1016L835 876L918 876L918 984L1002 984L1002 930L1085 930L1085 876L1169 876L1169 789L1252 789L1252 984L1336 984L1336 833L1419 833L1419 962L1503 962L1503 973L1586 973L1586 779L1670 779L1670 962L1753 962L1753 822L1837 822L1837 930L1920 930L1920 919L1920 841L1920 928L1837 928L1837 798L1753 798L1753 885L1670 885L1670 766L1586 766L1586 895L1503 895L1503 949L1419 949L1419 831L1336 831L1336 917L1252 917L1252 766L1169 766L1169 841L1085 841L1085 841L1002 841L1002 917L918 917L918 863L835 863L835 960L751 960L751 831L668 831L668 885L584 885L584 841L501 841L501 755L417 755L417 733L334 733L334 809L250 809L250 733L167 733L167 787L83 787L83 787L0 787Z" fill="#ca3c62"></path><path d="M0 843L83 843L83 962L167 962L167 919L250 919L250 843L334 843L334 854L417 854L417 887L501 887L501 941L584 941L584 962L668 962L668 908L751 908L751 1016L835 1016L835 962L918 962L918 1005L1002 1005L1002 1059L1085 1059L1085 984L1169 984L1169 876L1252 876L1252 984L1336 984L1336 930L1419 930L1419 1049L1503 1049L1503 995L1586 995L1586 897L1670 897L1670 1027L1753 1027L1753 941L1837 941L1837 995L1920 995L1920 930L1920 917L1920 928L1837 928L1837 820L1753 820L1753 960L1670 960L1670 777L1586 777L1586 971L1503 971L1503 960L1419 960L1419 831L1336 831L1336 982L1252 982L1252 787L1169 787L1169 874L1085 874L1085 928L1002 928L1002 982L918 982L918 874L835 874L835 1014L751 1014L751 863L668 863L668 960L584 960L584 852L501 852L501 841L417 841L417 777L334 777L334 831L250 831L250 787L167 787L167 852L83 852L83 798L0 798Z" fill="#db4e64"></path><path d="M0 995L83 995L83 1016L167 1016L167 1070L250 1070L250 1005L334 1005L334 1005L417 1005L417 1038L501 1038L501 1038L584 1038L584 1027L668 1027L668 995L751 995L751 1081L835 1081L835 995L918 995L918 1081L1002 1081L1002 1070L1085 1070L1085 995L1169 995L1169 995L1252 995L1252 1070L1336 1070L1336 1059L1419 1059L1419 1059L1503 1059L1503 1059L1586 1059L1586 984L1670 984L1670 1049L1753 1049L1753 1049L1837 1049L1837 1027L1920 1027L1920 1016L1920 928L1920 993L1837 993L1837 939L1753 939L1753 1025L1670 1025L1670 895L1586 895L1586 993L1503 993L1503 1047L1419 1047L1419 928L1336 928L1336 982L1252 982L1252 874L1169 874L1169 982L1085 982L1085 1057L1002 1057L1002 1003L918 1003L918 960L835 960L835 1014L751 1014L751 906L668 906L668 960L584 960L584 939L501 939L501 885L417 885L417 852L334 852L334 841L250 841L250 917L167 917L167 960L83 960L83 841L0 841Z" fill="#eb6066"></path><path d="M0 1081L83 1081L83 1081L167 1081L167 1081L250 1081L250 1081L334 1081L334 1081L417 1081L417 1081L501 1081L501 1081L584 1081L584 1081L668 1081L668 1081L751 1081L751 1081L835 1081L835 1081L918 1081L918 1081L1002 1081L1002 1081L1085 1081L1085 1081L1169 1081L1169 1081L1252 1081L1252 1081L1336 1081L1336 1081L1419 1081L1419 1081L1503 1081L1503 1081L1586 1081L1586 1081L1670 1081L1670 1081L1753 1081L1753 1081L1837 1081L1837 1081L1920 1081L1920 1081L1920 1014L1920 1025L1837 1025L1837 1047L1753 1047L1753 1047L1670 1047L1670 982L1586 982L1586 1057L1503 1057L1503 1057L1419 1057L1419 1057L1336 1057L1336 1068L1252 1068L1252 993L1169 993L1169 993L1085 993L1085 1068L1002 1068L1002 1079L918 1079L918 993L835 993L835 1079L751 1079L751 993L668 993L668 1025L584 1025L584 1036L501 1036L501 1036L417 1036L417 1003L334 1003L334 1003L250 1003L250 1068L167 1068L167 1014L83 1014L83 993L0 993Z" fill="#fa7268"></path></svg>